<svg id="visual" viewBox="0 0 1920 1080" width="1920" height="1080" xmlns="http://www.w3.org/2000/svg" xmlns:xlink="http://www.w3.org/1999/xlink" version="1.1"><rect x="0" y="0" width="1920" height="1080" fill="#3F3D56"></rect><path d="M895 0L886 30C877 60 859 120 864.7 180C870.3 240 899.7 300 913.8 360C928 420 927 480 909.2 540C891.3 600 856.7 660 855.5 720C854.3 780 886.7 840 895.5 900C904.3 960 889.7 1020 882.3 1050L875 1080L0 1080L0 1050C0 1020 0 960 0 900C0 840 0 780 0 720C0 660 0 600 0 540C0 480 0 420 0 360C0 300 0 240 0 180C0 120 0 60 0 30L0 0Z" fill="#F50081" stroke-linecap="round" stroke-linejoin="miter"></path></svg>